<?xml version="1.0" encoding="UTF-8"?>
<svg width="110.258787px" height="104.553778px" viewBox="0 0 110.258787 104.553778" version="1.1" xmlns="http://www.w3.org/2000/svg" xmlns:xlink="http://www.w3.org/1999/xlink">
    <title>编组 4</title>
    <g id="编辑报告" stroke="none" stroke-width="1" fill="none" fill-rule="evenodd">
        <g id="画板备份-8" transform="translate(-47.5901, -301.7235)">
            <g id="编组-19" transform="translate(24, 240)">
                <g id="编组-4" transform="translate(24.1284, 61.8426)">
                    <g id="Aortic-Annulus" transform="translate(0, -0)">
                        <g id="编组-9" transform="translate(54.5, 52) rotate(-30) translate(-54.5, -52)translate(11.7234, 16.8343)" stroke="#979797" stroke-width="0.866666667">
                            <g id="编组-7">
                                <g id="编组-5" transform="translate(0, 0)">
                                    <path d="M15.8458141,0 C15.0661248,4.83170156 14.6762801,9.72144714 14.6762801,14.6692367" id="路径"></path>
                                    <path d="M14.6762801,14.6692367 C14.8468966,20.4011808 14.0446803,24.0755337 12.2696311,25.6922957 C10.494582,27.3090577 6.40470495,27.3100703 0,25.6953337" id="路径-7" stroke-linecap="round" stroke-linejoin="round"></path>
                                    <path d="M9.07179058e-13,37.147162 C8.25964386,33.9358393 13.1517372,33.9358393 14.6762801,37.147162 C16.200823,40.3584847 15.0603768,45.4657325 11.2549414,52.4689053 C9.6833824,59.5564729 14.8136219,64.7174144 26.6456598,67.9517297" id="路径-8" stroke-linecap="round" stroke-linejoin="round"></path>
                                    <path d="M30.5345767,58.0442043 C33.5701785,66.2360841 38.6401227,70.3317828 45.7444093,70.3313005 C52.8486958,70.3308182 57.5815302,66.2351195 59.9429124,58.0442043" id="路径-10" stroke-linejoin="round"></path>
                                    <path d="M57.2771609,64.1877524 C60.156888,67.2966872 63.5303137,68.5515874 67.3974377,67.9524531 C73.1981239,67.0537517 74.3977409,64.6461049 79.3302276,58.0442043 C84.2627143,51.4423037 72.3454007,41.9184468 73.4459862,37.8309757 C74.1797099,35.1059951 78.2154293,34.1399624 85.5531444,34.9328777" id="路径-11" stroke-linecap="round" stroke-linejoin="round"></path>
                                    <path d="M85.5531444,24.2216883 C75.7099266,27.3615168 70.7883177,27.3615168 70.7883177,24.2216883 C70.7883177,21.5065794 70.0492104,10.9828606 72.1519668,0.501389082" id="路径" stroke-linecap="round" stroke-linejoin="round"></path>
                                </g>
                                <path d="M26.6456598,67.9517297 C29.0365183,67.9862093 31.6291295,66.7881819 34.4234935,64.3576474" id="路径-9"></path>
                            </g>
                        </g>
                        <ellipse id="椭圆形" fill="#000000" cx="55.9890279" cy="88.9228131" rx="1" ry="1"></ellipse>
                        <ellipse id="椭圆形" fill="#000000" cx="74.8772909" cy="81.0565621" rx="1" ry="1"></ellipse>
                        <ellipse id="椭圆形" fill="#000000" cx="92.0484391" cy="67.9461438" rx="1" ry="1"></ellipse>
                        <path d="M62.0414308,76.7517756 C58.8757447,76.9754117 61.2273094,76.9151114 59.9471569,77.0803777 M54.5406735,78.5639856 C54.5406735,79.7707662 63.5738208,80.7490553 74.7167726,80.7490553 C85.8597244,80.7490553 94.8928717,79.7707662 94.8928717,78.5639856 M86.1153199,76.8166342 C85.0124461,76.7233589 84.8269101,76.6664238 83.5574826,76.5993009" id="形状" stroke="#000000" stroke-width="0.866666667" stroke-linecap="round" stroke-linejoin="round" stroke-dasharray="1.733333" transform="translate(74.7168, 78.6742) rotate(-30) translate(-74.7168, -78.6742)"></path>
                    </g>
                    <text id="Aortic-Annulus" transform="translate(78.9109, 88.8293) rotate(-30) translate(-78.9109, -88.8293)" font-family="DINCondensed-Bold, DIN Condensed" font-size="8.96" font-style="condensed" font-weight="bold" fill="#000000">
                        <tspan x="58.4108944" y="90.3292645">Aortic Annulus</tspan>
                    </text>
                </g>
            </g>
        </g>
    </g>
</svg>