<?xml version="1.0" encoding="UTF-8"?>
<svg width="108px" height="118px" viewBox="0 0 108 118" version="1.1" xmlns="http://www.w3.org/2000/svg" xmlns:xlink="http://www.w3.org/1999/xlink">
    <title>编组 25</title>
    <defs>
        <rect id="path-1" x="19.1636132" y="15.8829115" width="108" height="118"></rect>
    </defs>
    <g id="编辑报告" stroke="none" stroke-width="1" fill="none" fill-rule="evenodd">
        <g id="画板备份-8" transform="translate(-57, -922)">
            <g id="编组-24" transform="translate(24, 864)">
                <g id="编组-25" transform="translate(13.8364, 42.1171)">
                    <mask id="mask-2" fill="white">
                        <use xlink:href="#path-1"></use>
                    </mask>
                    <g id="矩形"></g>
                    <g id="编组-2" mask="url(#mask-2)">
                        <g transform="translate(0.1636, -0.1171)">
                            <g id="编组-8" transform="translate(65.5, 69.5) rotate(-30) translate(-65.5, -69.5)translate(21.1853, 14.9686)">
                                <g id="编组-7" transform="translate(7.6666, -0)">
                                    <g id="编组-5" transform="translate(0, 0)">
                                        <text id="Ascending-aorta-Diam" transform="translate(49.9174, 21.4094) rotate(25) translate(-49.9174, -21.4094)" font-family="DINCondensed-Bold, DIN Condensed" font-size="6.67952548" font-style="condensed" font-weight="bold" line-spacing="8.01543058" fill="#000000">
                                            <tspan x="33.1550851" y="18.0093625">Ascending aorta </tspan>
                                            <tspan x="40.5793776" y="26.0247931">Diameter</tspan>
                                        </text>
                                        <path d="M32.5764589,1.36744309e-12 C20.1180239,17.2294613 13.8888064,35.3780867 13.8888064,54.4458763" id="路径-6" stroke="#979797" stroke-width="0.793126625"></path>
                                        <path d="M13.8888064,54.4458763 C14.0502682,59.8216945 13.2910958,63.2677599 11.6112891,64.7840724 C9.93148239,66.300385 6.06105269,66.3013347 9.06836625e-13,64.7869217" id="路径-7" stroke="#979797" stroke-width="0.793126625" stroke-linecap="round" stroke-linejoin="round"></path>
                                        <path d="M-9.06836625e-13,75.5272478 C7.81646258,72.5154446 12.4460647,72.5154446 13.8888064,75.5272478 C15.331548,78.5390509 14.2522939,83.3289853 10.6510438,89.897051 C9.16380869,96.5442679 14.0187789,101.38456 25.2159544,104.417927" id="路径-8" stroke="#979797" stroke-width="0.793126625" stroke-linecap="round" stroke-linejoin="round"></path>
                                        <path d="M28.8962067,95.1259566 C31.7689296,102.808875 36.5668397,106.650108 43.2899371,106.649655 C50.0130345,106.649203 54.4919229,102.80797 56.7266023,95.1259566" id="路径-10" stroke="#979797" stroke-width="0.793126625" stroke-linejoin="round"></path>
                                        <path d="M54.2038849,100.887806 C56.9290968,103.803583 60.1215171,104.980516 63.7811459,104.418606 C69.2705892,103.575741 70.4058393,101.317681 75.0736674,95.1259566 C79.7414955,88.9342321 68.4636199,80.0020925 69.5051522,76.1685761 C70.199507,73.6128986 74.0186849,72.7068855 80.962686,73.4505369" id="路径-11" stroke="#979797" stroke-width="0.793126625" stroke-linecap="round" stroke-linejoin="round"></path>
                                        <path d="M80.962686,63.4048339 C71.647618,66.3495848 66.9900841,66.3495848 66.9900841,63.4048339 C66.9900841,58.9877075 64.8854516,32.5344056 78.3642191,22.4766198" id="路径-12" stroke="#979797" stroke-width="0.793126625" stroke-linecap="round" stroke-linejoin="round"></path>
                                        <line x1="32.5764589" y1="0" x2="78.3642191" y2="22.4766198" id="路径-13" stroke="#000000" stroke-width="0.793126625" stroke-dasharray="2.003858"></line>
                                        <line x1="14.1291329" y1="59.8506677" x2="67.1112234" y2="59.8506677" id="路径-14" stroke="#000000" stroke-width="0.793126625" stroke-dasharray="2.003858"></line>
                                    </g>
                                    <path d="M25.2159544,104.417927 C27.4785284,104.450265 29.9320299,103.326671 32.5764589,101.047145" id="路径-9" stroke="#979797" stroke-width="0.793126625"></path>
                                </g>
                                <text id="STJ" font-family="DINCondensed-Bold, DIN Condensed" font-size="6.67952548" font-style="condensed" font-weight="bold" line-spacing="8.01543058" fill="#000000">
                                    <tspan x="45.1201618" y="53.2020141">STJ</tspan>
                                </text>
                                <text id="coronary-ostia-heigh" transform="translate(7.992, 92.925) rotate(90) translate(-7.992, -92.925)" font-family="DINCondensed-Bold, DIN Condensed" font-size="6.67952548" font-style="condensed" font-weight="bold" line-spacing="8.01543058" fill="#000000">
                                    <tspan x="-8.06094157" y="89.9095964">coronary ostia</tspan>
                                    <tspan x="-8.06094157" y="97.925027">height</tspan>
                                </text>
                            </g>
                            <g id="编组-6" transform="translate(59.1462, 111.4334) rotate(60) translate(-59.1462, -111.4334)translate(45.8851, 105.8203)">
                                <g id="编组-4" transform="translate(-0, -0)" fill="#000000" fill-rule="nonzero">
                                    <g id="箭头2" transform="translate(15.5248, 0)">
                                        <rect id="矩形" opacity="0" x="0" y="0" width="10.9974558" height="11.2262795"></rect>
                                        <path d="M9.98442219,5.41503896 L8.44085659,3.83935033 C8.37008736,3.76714528 8.23429665,3.78865888 8.13753079,3.88747481 C8.04077093,3.98625407 8.01964194,4.12490684 8.09039321,4.19713023 L9.41643622,5.5507764 L8.09042914,6.904392 C8.01967787,6.97658483 8.04080685,7.1152865 8.13756672,7.21401075 C8.23433257,7.31280223 8.37012328,7.33434028 8.44089252,7.26218412 L9.98445812,5.68648327 C10.0178969,5.65239153 10.0305659,5.60335028 10.0246864,5.55077639 C10.03053,5.49819639 10.017861,5.44920404 9.98442219,5.41503896 Z" id="形状"></path>
                                    </g>
                                    <path d="M15.483879,5.19992334 C15.7351324,5.19992334 15.9387992,5.40782779 15.9387992,5.66432032 C15.9387992,5.92075675 15.7351324,6.12869485 15.483879,6.12869485 C15.2326255,6.12869485 15.0289587,5.92075675 15.0289587,5.66432032 C15.0289587,5.40782779 15.2326255,5.19992334 15.483879,5.19992334 Z M17.1537498,5.19992334 C17.4050033,5.19992334 17.6086811,5.40782779 17.6086811,5.66432032 C17.6086811,5.92075675 17.4050033,6.12869485 17.1537498,6.12869485 C16.9024963,6.12869485 16.6988296,5.92075675 16.6988296,5.66432032 C16.6988296,5.40782779 16.9024963,5.19992334 17.1537498,5.19992334 Z M18.8236427,5.19992334 C19.0748962,5.19992334 19.2785629,5.40782779 19.2785629,5.66432032 C19.2785629,5.92075675 19.0748962,6.12869485 18.8236427,6.12869485 C18.5723892,6.12869485 18.3687114,5.92075675 18.3687114,5.66432032 C18.3687224,5.40782779 18.5723892,5.19992334 18.8236427,5.19992334 Z M20.4935245,5.19992334 C20.744767,5.19992334 20.9484558,5.40782779 20.9484558,5.66432032 C20.9484558,5.92075675 20.744778,6.12869485 20.4935245,6.12869485 C20.242271,6.12869485 20.0385933,5.92075675 20.0385933,5.66432032 C20.0385933,5.40782779 20.242271,5.19992334 20.4935245,5.19992334 Z M13.8140081,5.19992334 C14.0652616,5.19992334 14.2689283,5.40782779 14.2689283,5.66432032 C14.2689283,5.92075675 14.0652616,6.12869485 13.8140081,6.12869485 C13.5627546,6.12869485 13.3590878,5.92075675 13.3590878,5.66432032 C13.3590878,5.40782779 13.5627546,5.19992334 13.8140081,5.19992334 Z M12.1441262,5.19992334 C12.3953797,5.19992334 12.5990575,5.40782779 12.5990575,5.66432032 C12.5990575,5.92075675 12.3953797,6.12869485 12.1441262,6.12869485 C11.8928727,6.12869485 11.689206,5.92075675 11.689206,5.66432032 C11.689206,5.40782779 11.8928727,5.19992334 12.1441262,5.19992334 Z M10.4742554,5.19992334 C10.7255088,5.19992334 10.9291756,5.40782779 10.9291756,5.66432032 C10.9291756,5.92075675 10.7255088,6.12869485 10.4742554,6.12869485 C10.2230019,6.12869485 10.0193241,5.92075675 10.0193241,5.66432032 C10.0193351,5.40782779 10.2230019,5.19992334 10.4742554,5.19992334 Z M8.80436251,5.19992334 C9.055605,5.19992334 9.25929375,5.40782779 9.25929375,5.66432032 C9.25929375,5.92075675 9.05561599,6.12869485 8.80436251,6.12869485 C8.55310902,6.12869485 8.34943127,5.92075675 8.34943127,5.66432032 C8.34943127,5.40782779 8.55310902,5.19992334 8.80436251,5.19992334 Z M3.79468397,5.19992334 C4.04593745,5.19992334 4.24961521,5.40782779 4.24961521,5.66432032 C4.24961521,5.92075675 4.04593745,6.12869485 3.79468397,6.12869485 C3.54343049,6.12869485 3.33976372,5.92075675 3.33976372,5.66432032 C3.33976372,5.40782779 3.54343049,5.19992334 3.79468397,5.19992334 Z M2.12480211,5.19992334 C2.37605559,5.19992334 2.57973335,5.40782779 2.57973335,5.66432032 C2.57973335,5.92075675 2.37605559,6.12869485 2.12480211,6.12869485 C1.87354863,6.12869485 1.66988186,5.92075675 1.66988186,5.66432032 C1.66988186,5.40782779 1.87354863,5.19992334 2.12480211,5.19992334 Z M0.454920253,5.19992334 C0.706173735,5.19992334 0.909851493,5.40782779 0.909851493,5.66432032 C0.909851493,5.92075675 0.706173735,6.12869485 0.454920253,6.12869485 C0.203666771,6.12869485 -4.53418312e-13,5.92075675 -4.53418312e-13,5.66432032 C-4.53418312e-13,5.40782779 0.203666771,5.19992334 0.454920253,5.19992334 Z M7.13446966,5.19992334 C7.38571216,5.19992334 7.5894009,5.40782779 7.5894009,5.66432032 C7.5894009,5.92075675 7.38572314,6.12869485 7.13446966,6.12869485 C6.88321618,6.12869485 6.67953842,5.92075675 6.67953842,5.66432032 C6.67953842,5.40782779 6.88321618,5.19992334 7.13446966,5.19992334 Z M5.46457682,5.19992334 C5.71581931,5.19992334 5.91950806,5.40782779 5.91950806,5.66432032 C5.91950806,5.92075675 5.7158303,6.12869485 5.46457682,6.12869485 C5.21332333,6.12869485 5.00964558,5.92075675 5.00964558,5.66432032 C5.00964558,5.40782779 5.21332333,5.19992334 5.46457682,5.19992334 Z M23.4084312,5.41503896 L21.8648656,3.83935033 C21.7940964,3.76714528 21.6583056,3.78865888 21.5615398,3.88747481 C21.4647799,3.98625407 21.4436509,4.12490684 21.5144022,4.19713023 L22.8404452,5.5507764 L21.5144381,6.904392 C21.4436869,6.97658483 21.4648159,7.1152865 21.5615757,7.21401075 C21.6583416,7.31280223 21.7941323,7.33434028 21.8649015,7.26218412 L23.4084671,5.68648327 C23.4419059,5.65239153 23.4545749,5.60335028 23.4486954,5.55077639 C23.454539,5.49819639 23.44187,5.44920404 23.4084312,5.41503896 Z" id="形状" transform="translate(11.725, 5.5507) scale(-1, 1) translate(-11.725, -5.5507)"></path>
                                </g>
                            </g>
                            <g id="编组-6" transform="translate(112.8887, 83.3677) rotate(60) translate(-112.8887, -83.3677)translate(97.5337, 77.7546)">
                                <g id="编组-4" transform="translate(-0, -0)" fill="#000000" fill-rule="nonzero">
                                    <g id="箭头2" transform="translate(17.9761, 0)">
                                        <rect id="矩形" opacity="0" x="0" y="0" width="12.7338962" height="11.2262795"></rect>
                                        <path d="M11.5609099,5.41503896 L9.77362342,3.83935033 C9.6916801,3.76714528 9.53444875,3.78865888 9.42240408,3.88747481 C9.31036634,3.98625407 9.2859012,4.12490684 9.36782372,4.19713023 L10.9032419,5.5507764 L9.36786532,6.904392 C9.2859428,6.97658483 9.31040793,7.1152865 9.42244567,7.21401075 C9.53449034,7.31280223 9.69172169,7.33434028 9.77366502,7.26218412 L11.5609515,5.68648327 C11.5996701,5.65239153 11.6143395,5.60335028 11.6075316,5.55077639 C11.6142979,5.49819639 11.5996285,5.44920404 11.5609099,5.41503896 Z" id="形状"></path>
                                    </g>
                                    <path d="M17.9287019,5.19992334 C18.219627,5.19992334 18.4554517,5.40782779 18.4554517,5.66432032 C18.4554517,5.92075675 18.219627,6.12869485 17.9287019,6.12869485 C17.6377769,6.12869485 17.4019522,5.92075675 17.4019522,5.66432032 C17.4019522,5.40782779 17.6377769,5.19992334 17.9287019,5.19992334 Z M19.8622366,5.19992334 C20.1531617,5.19992334 20.3889991,5.40782779 20.3889991,5.66432032 C20.3889991,5.92075675 20.1531617,6.12869485 19.8622366,6.12869485 C19.5713116,6.12869485 19.3354869,5.92075675 19.3354869,5.66432032 C19.3354869,5.40782779 19.5713116,5.19992334 19.8622366,5.19992334 Z M21.7957968,5.19992334 C22.0867219,5.19992334 22.3225465,5.40782779 22.3225465,5.66432032 C22.3225465,5.92075675 22.0867219,6.12869485 21.7957968,6.12869485 C21.5048717,6.12869485 21.2690343,5.92075675 21.2690343,5.66432032 C21.269047,5.40782779 21.5048717,5.19992334 21.7957968,5.19992334 Z M23.7293442,5.19992334 C24.0202566,5.19992334 24.2561067,5.40782779 24.2561067,5.66432032 C24.2561067,5.92075675 24.0202693,6.12869485 23.7293442,6.12869485 C23.4384191,6.12869485 23.2025817,5.92075675 23.2025817,5.66432032 C23.2025817,5.40782779 23.4384191,5.19992334 23.7293442,5.19992334 Z M15.9951673,5.19992334 C16.2860923,5.19992334 16.521917,5.40782779 16.521917,5.66432032 C16.521917,5.92075675 16.2860924,6.12869485 15.9951673,6.12869485 C15.7042422,6.12869485 15.4684175,5.92075675 15.4684175,5.66432032 C15.4684175,5.40782779 15.7042422,5.19992334 15.9951673,5.19992334 Z M14.0616198,5.19992334 C14.3525449,5.19992334 14.5883823,5.40782779 14.5883823,5.66432032 C14.5883823,5.92075675 14.3525449,6.12869485 14.0616198,6.12869485 C13.7706948,6.12869485 13.5348701,5.92075675 13.5348701,5.66432032 C13.5348701,5.40782779 13.7706948,5.19992334 14.0616198,5.19992334 Z M12.1280851,5.19992334 C12.4190102,5.19992334 12.6548349,5.40782779 12.6548349,5.66432032 C12.6548349,5.92075675 12.4190102,6.12869485 12.1280851,6.12869485 C11.83716,6.12869485 11.6013227,5.92075675 11.6013227,5.66432032 C11.6013354,5.40782779 11.8371601,5.19992334 12.1280851,5.19992334 Z M10.194525,5.19992334 C10.4854374,5.19992334 10.7212875,5.40782779 10.7212875,5.66432032 C10.7212875,5.92075675 10.4854501,6.12869485 10.194525,6.12869485 C9.90359992,6.12869485 9.66776252,5.92075675 9.66776252,5.66432032 C9.66776252,5.40782779 9.90359992,5.19992334 10.194525,5.19992334 Z M4.3938446,5.19992334 C4.68476968,5.19992334 4.92060709,5.40782779 4.92060709,5.66432032 C4.92060709,5.92075675 4.68476968,6.12869485 4.3938446,6.12869485 C4.10291951,6.12869485 3.86709483,5.92075675 3.86709483,5.66432032 C3.86709483,5.40782779 4.10291951,5.19992334 4.3938446,5.19992334 Z M2.46029718,5.19992334 C2.75122227,5.19992334 2.98705967,5.40782779 2.98705967,5.66432032 C2.98705967,5.92075675 2.75122227,6.12869485 2.46029718,6.12869485 C2.1693721,6.12869485 1.93354742,5.92075675 1.93354742,5.66432032 C1.93354742,5.40782779 2.1693721,5.19992334 2.46029718,5.19992334 Z M0.526749767,5.19992334 C0.817674851,5.19992334 1.05351226,5.40782779 1.05351226,5.66432032 C1.05351226,5.92075675 0.817674851,6.12869485 0.526749767,6.12869485 C0.235824682,6.12869485 0,5.92075675 0,5.66432032 C0,5.40782779 0.235824682,5.19992334 0.526749767,5.19992334 Z M8.26096487,5.19992334 C8.55187723,5.19992334 8.78772736,5.40782779 8.78772736,5.66432032 C8.78772736,5.92075675 8.55188996,6.12869485 8.26096487,6.12869485 C7.97003979,6.12869485 7.73420238,5.92075675 7.73420238,5.66432032 C7.73420238,5.40782779 7.97003979,5.19992334 8.26096487,5.19992334 Z M6.32740473,5.19992334 C6.6183171,5.19992334 6.85416722,5.40782779 6.85416722,5.66432032 C6.85416722,5.92075675 6.61832982,6.12869485 6.32740473,6.12869485 C6.03647965,6.12869485 5.80064225,5.92075675 5.80064225,5.66432032 C5.80064225,5.40782779 6.03647965,5.19992334 6.32740473,5.19992334 Z M27.1044993,5.41503896 L25.3172128,3.83935033 C25.2352695,3.76714528 25.0780381,3.78865888 24.9659934,3.88747481 C24.8539557,3.98625407 24.8294906,4.12490684 24.9114131,4.19713023 L26.4468313,5.5507764 L24.9114547,6.904392 C24.8295322,6.97658483 24.8539973,7.1152865 24.966035,7.21401075 C25.0780797,7.31280223 25.2353111,7.33434028 25.3172544,7.26218412 L27.1045409,5.68648327 C27.1432594,5.65239153 27.1579288,5.60335028 27.151121,5.55077639 C27.1578872,5.49819639 27.1432178,5.44920404 27.1044993,5.41503896 Z" id="形状" transform="translate(13.5764, 5.5507) scale(-1, 1) translate(-13.5764, -5.5507)"></path>
                                </g>
                            </g>
                        </g>
                    </g>
                </g>
            </g>
        </g>
    </g>
</svg>